<?xml version="1.0" encoding="UTF-8"?>
<!-- Generator: visioncortex VTracer 0.6.3 -->
<svg version="1.1" xmlns="http://www.w3.org/2000/svg" width="1280" height="1280">
<path d="M0 0 C422.4 0 844.8 0 1280 0 C1280 422.4 1280 844.8 1280 1280 C857.6 1280 435.2 1280 0 1280 C0 857.6 0 435.2 0 0 Z " fill="#FBFCFE" transform="translate(0,0)"/>
<path d="M0 0 C0.85 0 1.7 0.01 2.58 0.01 C15 0.07 27.29 0.23 39.56 2.25 C40.54 2.41 41.52 2.57 42.54 2.74 C57.02 5.2 71.25 8.39 85.33 12.59 C87.26 13.16 89.21 13.7 91.16 14.24 C97.81 16.27 101.13 19.19 104.56 25.25 C105.84 27.81 105.69 29.64 105.7 32.51 C105.7 33.6 105.7 34.68 105.7 35.81 C105.7 36.98 105.69 38.16 105.69 39.38 C105.68 40.59 105.68 41.8 105.68 43.05 C105.57 61.88 104.61 80.54 102.56 99.25 C102.42 100.62 102.27 101.99 102.13 103.36 C101.72 107.18 101.31 111 100.88 114.82 C100.71 116.34 100.55 117.87 100.38 119.39 C100.15 121.55 99.91 123.71 99.66 125.87 C99.52 127.12 99.38 128.38 99.24 129.67 C98.3 134.64 97.16 138.94 93.12 142.25 C90.33 143.34 89.28 143.41 86.56 142.25 C84.96 140.65 85.32 138.86 85.2 136.64 C83.66 112.06 79.21 90.54 64.56 70.25 C64.05 69.5 63.53 68.75 63 67.97 C59.45 62.95 55.38 59.05 50.56 55.25 C49.85 54.69 49.13 54.12 48.39 53.54 C29.01 39.16 6.36 33.1 -17.5 33 C-18.73 32.98 -19.97 32.96 -21.24 32.94 C-44.87 32.84 -66.46 41.83 -83.44 58.25 C-96.27 72.82 -103.52 90.54 -103.64 109.99 C-103.65 110.72 -103.65 111.45 -103.66 112.19 C-103.67 113.73 -103.67 115.26 -103.68 116.8 C-103.69 119.08 -103.72 121.37 -103.75 123.66 C-104.08 169.47 -77.29 208.51 -48.32 241.9 C-45.74 244.88 -43.23 247.93 -40.75 251 C-36.49 256.25 -32 261.26 -27.44 266.25 C-25.89 267.96 -24.35 269.67 -22.81 271.38 C-22.06 272.21 -21.31 273.04 -20.54 273.89 C-18.72 275.94 -16.92 277.99 -15.12 280.06 C-10.03 285.91 -4.72 291.57 0.56 297.25 C1.17 297.91 1.78 298.56 2.41 299.24 C9.23 306.57 16.04 313.87 23.22 320.84 C25.13 322.81 26.91 324.8 28.69 326.87 C32.57 331.32 36.67 335.5 40.84 339.66 C41.61 340.43 42.38 341.2 43.17 342 C44.79 343.62 46.41 345.23 48.03 346.85 C50.49 349.31 52.95 351.77 55.4 354.23 C56.99 355.81 58.57 357.39 60.15 358.97 C61.24 360.06 61.24 360.06 62.35 361.17 C66.39 365.2 70.53 369.06 74.87 372.77 C77.04 374.67 79.06 376.68 81.06 378.75 C84.47 382.2 87.99 385.42 91.66 388.57 C93.54 390.23 95.31 391.96 97.06 393.75 C99.96 396.7 103 399.4 106.13 402.1 C109.33 404.93 112.44 407.84 115.56 410.75 C120.49 415.34 125.46 419.86 130.56 424.25 C131.71 425.25 132.85 426.24 133.99 427.24 C141.41 433.71 148.89 440.08 156.56 446.25 C181.03 416.26 192.46 372.57 192.88 334.44 C192.89 333.41 192.91 332.39 192.93 331.33 C192.91 317.54 189.01 306.06 180.19 295.38 C170.06 287.18 161.39 285.05 148.63 284.21 C142.76 283.71 138.7 282.16 133.56 279.25 C133.93 276.56 134.23 274.69 135.88 272.5 C139.25 270 142.95 270.12 147.03 270.12 C148.07 270.12 149.12 270.11 150.2 270.11 C151.83 270.12 151.83 270.12 153.5 270.12 C154.58 270.12 155.67 270.12 156.79 270.11 C157.84 270.11 158.88 270.12 159.96 270.12 C161.4 270.12 161.4 270.12 162.86 270.12 C165.56 270.25 165.56 270.25 167.86 270.73 C171.68 271.47 175.48 271.56 179.36 271.71 C181.13 271.79 182.9 271.87 184.67 271.95 C186.05 272.01 186.05 272.01 187.46 272.07 C247.94 274.66 247.94 274.66 255.79 281.07 C256.38 281.79 256.96 282.51 257.56 283.25 C258.13 283.95 258.71 284.65 259.3 285.37 C261.19 289.68 260.92 293.72 260.81 298.38 C260.8 299.71 260.8 299.71 260.8 301.06 C260.26 347.73 238.83 392.39 214.56 431.25 C213.2 433.45 211.85 435.65 210.49 437.86 C208.46 441.16 206.42 444.46 204.39 447.76 C200.82 453.56 197.27 459.37 193.79 465.22 C192.76 466.92 191.67 468.59 190.56 470.25 C190.56 471.57 190.56 472.89 190.56 474.25 C192.87 476.52 192.87 476.52 196 478.69 C197.21 479.58 198.41 480.47 199.62 481.36 C200.26 481.83 200.91 482.29 201.57 482.78 C203.57 484.26 205.54 485.77 207.51 487.3 C218.26 495.67 229.34 503.52 240.56 511.25 C241.81 512.11 241.81 512.11 243.07 512.99 C252.5 519.5 261.94 526 271.67 532.06 C273 532.9 274.34 533.74 275.67 534.59 C304.51 552.83 341.22 572.58 376.41 571.08 C378.95 571.28 380.25 571.9 382.31 573.38 C384.56 576.25 384.56 576.25 384.56 579.44 C383.56 582.25 383.56 582.25 381.56 584.25 C379.64 584.5 379.64 584.5 377.25 584.5 C375.89 584.5 375.89 584.5 374.5 584.51 C373.01 584.5 373.01 584.5 371.48 584.49 C370.43 584.49 369.38 584.5 368.3 584.5 C364.81 584.5 361.32 584.49 357.82 584.48 C355.39 584.48 352.95 584.48 350.52 584.48 C345.39 584.48 340.27 584.47 335.14 584.46 C328.63 584.44 322.11 584.43 315.6 584.44 C310.56 584.44 305.51 584.43 300.47 584.42 C298.07 584.42 295.68 584.42 293.28 584.42 C254.32 584.39 254.32 584.39 236.06 581.56 C234.93 581.39 233.79 581.21 232.63 581.03 C194.99 574.91 156.95 555.03 128.63 529.51 C126.61 528.01 126.61 528.01 124.05 528.38 C121.41 529.3 119.85 530.31 117.74 532.13 C117.05 532.72 116.35 533.3 115.64 533.91 C114.91 534.54 114.19 535.17 113.44 535.81 C111.9 537.1 110.37 538.4 108.83 539.68 C108.09 540.3 107.35 540.93 106.59 541.57 C102.41 545.03 98.03 548.17 93.56 551.25 C92.97 551.67 92.37 552.1 91.75 552.54 C32.72 594.38 -43.64 603.5 -114 591.63 C-147.17 585.58 -179.63 574.17 -206.44 553.25 C-207.37 552.53 -208.31 551.82 -209.28 551.08 C-241.4 525.78 -262.86 488.8 -268.75 448.31 C-273.87 399.62 -255.68 351.9 -225.44 314.25 C-224.77 313.37 -224.1 312.5 -223.41 311.6 C-213.38 298.78 -201.36 287.12 -188.44 277.25 C-187.18 276.26 -185.92 275.27 -184.66 274.28 C-172.76 265 -160.51 255.83 -147.44 248.25 C-148.81 244.54 -150.51 241.32 -152.6 237.96 C-153.22 236.95 -153.85 235.93 -154.49 234.89 C-155.15 233.81 -155.82 232.73 -156.5 231.62 C-178.95 194.59 -190.18 153.03 -179.81 109.93 C-175.08 91.54 -166.77 75.76 -154.44 61.25 C-153.8 60.48 -153.17 59.72 -152.52 58.93 C-147.95 53.5 -147.95 53.5 -145.3 52.22 C-143.08 51.34 -143.08 51.34 -142.44 48.25 C-139 44.98 -135.2 42.13 -131.44 39.25 C-130.89 38.83 -130.35 38.41 -129.79 37.98 C-106.41 20.24 -78.86 10.63 -50.38 4.5 C-49.47 4.3 -48.56 4.1 -47.62 3.9 C-31.88 0.68 -16.03 -0.11 0 0 Z " fill="#22306C" transform="translate(693.4375,402.75)"/>
<path d="M0 0 C0.65 -0 1.3 -0.01 1.96 -0.01 C4.14 -0.02 6.32 -0.02 8.51 -0.02 C10.07 -0.03 11.63 -0.03 13.19 -0.04 C17.44 -0.05 21.7 -0.06 25.95 -0.06 C28.62 -0.06 31.29 -0.07 33.96 -0.07 C42.35 -0.08 50.73 -0.09 59.12 -0.1 C68.73 -0.1 78.35 -0.12 87.97 -0.15 C95.43 -0.17 102.89 -0.18 110.35 -0.18 C114.79 -0.18 119.23 -0.19 123.67 -0.21 C163.25 -0.36 205.15 -0.09 235.82 28.7 C250.46 43.94 256.93 61.92 256.95 82.89 C256.96 83.91 256.97 84.93 256.98 85.98 C257.03 108.86 247.93 130.19 232.76 147.14 C232.27 147.69 231.78 148.24 231.27 148.8 C225.12 155.66 218.92 162.31 211.76 168.14 C210.42 169.24 209.09 170.34 207.76 171.45 C206.89 172.16 206.89 172.16 206.01 172.88 C204.53 174.08 204.53 174.08 204.76 176.14 C205.46 176.45 206.17 176.76 206.89 177.08 C229.08 186.95 247.9 197.57 265.76 214.14 C266.35 214.67 266.95 215.2 267.56 215.74 C284.98 231.96 299.4 258.29 300.96 282.22 C301.06 285.59 301.09 288.95 301.07 292.33 C301.07 293.52 301.06 294.71 301.06 295.94 C300.95 304.7 300.21 312.69 297.76 321.14 C297.48 322.13 297.2 323.12 296.92 324.14 C291.35 342.19 282.86 357.43 269.76 371.14 C268.88 372.14 268.88 372.14 267.97 373.15 C257.77 384.21 244.23 391.49 230.56 397.37 C229.08 398 227.6 398.67 226.13 399.34 C212.22 405.43 196.7 408.01 181.76 410.14 C181.06 410.24 180.35 410.35 179.63 410.46 C165.86 412.48 152.63 412.25 138.76 411.2 C103.91 408.77 68.83 408.23 33.92 409.47 C33.09 409.5 32.25 409.53 31.39 409.56 C27.55 409.7 23.7 409.85 19.86 410.05 C5.73 410.68 5.73 410.68 -0.24 407.14 C-1.23 405.66 -1.23 405.66 -2.24 404.14 C4.46 400.74 10.7 400.45 18.11 400.06 C25.11 399.56 29.08 398 34 392.75 C40.05 383.76 40.89 371.71 41.76 361.14 C41.84 360.17 41.93 359.21 42.01 358.21 C43 344.91 42.91 331.6 42.91 318.27 C42.9 314.65 42.91 311.03 42.92 307.41 C42.92 300.33 42.93 293.26 42.93 286.19 C42.93 280.43 42.93 274.68 42.93 268.92 C42.94 252.56 42.95 236.2 42.95 219.84 C42.95 218.52 42.95 218.52 42.95 217.18 C42.95 215.85 42.95 215.85 42.94 214.51 C42.94 200.24 42.95 185.97 42.97 171.7 C42.98 157.01 42.99 142.32 42.99 127.62 C42.99 119.39 42.99 111.16 43 102.93 C43.01 95.92 43.01 88.91 43.01 81.91 C43 78.34 43 74.77 43.01 71.21 C43.1 53.45 43.1 53.45 41.95 35.75 C41.89 35.06 41.82 34.37 41.75 33.66 C40.85 26.34 37.56 19.17 31.72 14.51 C22.43 10.21 12.83 9.53 2.75 8.97 C1.77 8.9 0.8 8.83 -0.21 8.77 C-1.08 8.72 -1.95 8.67 -2.85 8.62 C-5.64 8.06 -7.11 6.99 -9.24 5.14 C-8.87 3.2 -8.87 3.2 -8.24 1.14 C-5.44 -0.26 -3.13 0.01 0 0 Z " fill="#22306C" transform="translate(961.2402038574219,475.85955810546875)"/>
<path d="M0 0 C1.19 -0 2.39 -0.01 3.62 -0.01 C17.18 -0.03 30.39 0.37 43.81 2.31 C45.92 2.56 48.03 2.8 50.13 3.02 C66.02 4.82 81.69 7.35 97.39 10.39 C98.29 10.56 99.2 10.74 100.13 10.92 C101.89 11.26 103.66 11.61 105.43 11.96 C109.37 12.72 113.28 13.41 117.28 13.83 C117.97 13.91 118.65 13.98 119.36 14.06 C121.16 14.24 122.97 14.38 124.78 14.53 C128.64 15.53 130.24 17.33 132.81 20.31 C133.14 20.64 133.47 20.97 133.81 21.31 C133.91 22.88 133.94 24.44 133.95 26.01 C133.95 26.97 133.95 27.94 133.95 28.93 C133.95 29.94 133.94 30.96 133.94 32 C133.94 32.99 133.95 33.99 133.95 35.01 C133.95 36.47 133.95 36.47 133.95 37.95 C133.94 38.83 133.94 39.72 133.94 40.63 C133.81 43.31 133.81 43.31 133.32 46.06 C132.79 49.43 132.6 52.67 132.49 56.08 C132.46 56.73 132.44 57.38 132.42 58.04 C132.37 59.44 132.32 60.84 132.27 62.23 C132.17 65.2 132.06 68.18 131.94 71.15 C131.73 76.67 131.52 82.19 131.34 87.71 C131.21 91.57 131.07 95.42 130.91 99.27 C130.85 100.73 130.8 102.2 130.76 103.66 C130.7 105.71 130.62 107.76 130.53 109.8 C130.48 110.97 130.44 112.13 130.4 113.33 C129.7 116.88 128.66 118.14 125.81 120.31 C122.74 120.13 121.44 119.06 118.81 117.31 C117.81 114.31 117.81 114.31 117.94 110.5 C118.09 91.74 108.67 72.86 95.99 59.49 C94.91 58.41 94.91 58.41 93.81 57.31 C93.25 56.75 92.69 56.19 92.11 55.61 C73.68 38.61 43.9 32.63 19.81 29.31 C18.42 29.11 17.02 28.9 15.63 28.69 C7.75 27.56 -0.01 27 -7.98 27.25 C-9.62 27.3 -11.25 27.34 -12.88 27.37 C-54.14 28.29 -94.33 35.92 -124.08 66.92 C-128.11 71.49 -131.69 76.33 -135.19 81.31 C-135.93 82.37 -136.67 83.43 -137.44 84.52 C-160.54 118.47 -166.86 158.97 -166.62 199.25 C-166.62 200.88 -166.62 200.88 -166.62 202.55 C-166.56 218.5 -165.83 233.72 -162.19 249.31 C-161.87 250.86 -161.55 252.41 -161.24 253.96 C-156.38 277.32 -146.48 300.43 -132.38 319.68 C-131.23 321.25 -130.12 322.85 -129.01 324.45 C-116.86 341.21 -101.41 354.97 -84.19 366.31 C-82.6 367.39 -82.6 367.39 -80.98 368.5 C-39.33 395.63 9.62 400.85 57.84 391.4 C74.99 387.6 90.38 379.74 102.81 367.31 C103.45 366.68 104.09 366.04 104.74 365.38 C115.04 354.35 120.55 340.04 124.82 325.81 C125.84 323.25 126.61 321.94 128.81 320.31 C129.8 320.31 130.79 320.31 131.81 320.31 C137.92 329.73 134.28 341.88 132.33 352.18 C132.07 353.58 131.81 354.99 131.55 356.39 C131.01 359.31 130.46 362.24 129.91 365.16 C129.2 368.89 128.51 372.62 127.83 376.36 C127.31 379.25 126.76 382.14 126.22 385.03 C125.96 386.41 125.71 387.78 125.46 389.16 C125.11 391.09 124.74 393.01 124.37 394.93 C124.16 396.02 123.96 397.11 123.75 398.24 C121.68 405.03 117.14 409.9 111.02 413.31 C104.11 416.58 96.97 417.98 89.5 419.44 C88.26 419.69 87.02 419.94 85.74 420.2 C68.69 423.61 52.33 425.47 34.95 425.55 C33.75 425.56 33.75 425.56 32.52 425.56 C28.26 425.58 23.99 425.6 19.73 425.61 C16.28 425.62 12.82 425.64 9.37 425.67 C-25.36 425.98 -58.84 422.78 -92.19 412.31 C-92.91 412.1 -93.63 411.89 -94.38 411.67 C-116.23 405.21 -137.5 395.42 -156.19 382.31 C-157.18 381.62 -157.18 381.62 -158.19 380.91 C-167.29 374.46 -175.73 367.47 -183.74 359.71 C-185.09 358.4 -186.46 357.11 -187.83 355.83 C-194.68 349.23 -200.55 341.96 -206.19 334.31 C-207.01 333.2 -207.01 333.2 -207.85 332.07 C-212.42 325.74 -216.18 319.14 -219.75 312.19 C-220.32 311.09 -220.88 309.99 -221.47 308.85 C-225.71 300.5 -229.33 292.24 -232.19 283.31 C-232.4 282.65 -232.62 281.99 -232.84 281.3 C-236.43 270.16 -239.17 258.84 -241.19 247.31 C-241.31 246.63 -241.43 245.94 -241.55 245.23 C-247.12 211.04 -243.39 175.17 -233.19 142.31 C-232.81 141.07 -232.81 141.07 -232.43 139.79 C-225.99 118.74 -215.54 99.75 -202.19 82.31 C-201.48 81.36 -200.76 80.4 -200.03 79.42 C-168.75 39.24 -122.18 16.35 -73.19 6.31 C-72.47 6.16 -71.75 6.01 -71.01 5.86 C-66.09 4.84 -61.15 4.05 -56.19 3.31 C-55.34 3.18 -54.49 3.04 -53.62 2.9 C-35.79 0.11 -18 0.02 0 0 Z " fill="#22306C" transform="translate(246.1875,475.6875)"/>
<path d="M0 0 C0.79 0.2 1.59 0.41 2.41 0.62 C25.71 6.76 45.11 17.13 64 32 C65.27 33 65.27 33 66.57 34.02 C69.06 36 71.53 38 74 40 C74.81 40.64 75.63 41.28 76.47 41.94 C84.75 48.53 92.33 55.82 100 63.11 C107.52 70.23 115.23 77.09 123.13 83.79 C126.73 86.86 130.15 90.02 133.44 93.43 C135.18 95.18 137.01 96.77 138.88 98.38 C143.46 102.34 147.99 106.45 152 111 C152 111.66 152 112.32 152 113 C152.66 113 153.32 113 154 113 C153.67 115.81 153.27 116.78 151.02 118.57 C150.15 119.08 149.28 119.6 148.38 120.12 C145.06 122.12 141.78 124.12 138.6 126.32 C107.31 148.02 72.08 159.45 33.97 159.26 C31.44 159.25 28.9 159.26 26.36 159.27 C-11.32 159.31 -45.74 146.13 -73 120 C-73.81 119.25 -74.62 118.51 -75.45 117.74 C-99.95 94.43 -116.38 58.36 -117.32 24.55 C-117.34 23.69 -117.36 22.83 -117.38 21.94 C-117.4 21.1 -117.43 20.27 -117.45 19.41 C-117.46 18.23 -117.46 18.23 -117.46 17.03 C-117.47 16.32 -117.48 15.62 -117.49 14.89 C-116.78 12.13 -115.41 11.44 -113 10 C-109.57 8.61 -106 7.65 -102.44 6.62 C-100.87 6.17 -100.87 6.17 -99.27 5.71 C-68.49 -2.9 -31.52 -8.24 0 0 Z " fill="#FBFCFE" transform="translate(633,792)"/>
<path d="M0 0 C6.2 3.28 11.51 7.04 16.69 11.75 C17.5 12.48 18.3 13.2 19.14 13.95 C36.81 30.71 48.45 52.35 55.44 75.44 C55.64 76.09 55.84 76.74 56.04 77.41 C59.23 88.48 60.06 99.39 60.06 110.84 C60.06 113.12 60.1 115.39 60.14 117.66 C60.28 136.77 54.1 152.84 40.69 166.75 C26.44 179.29 11.1 184.34 -7.69 184.25 C-9 184.25 -10.32 184.24 -11.67 184.23 C-28.31 184.01 -46.12 181.07 -59.38 170.25 C-63.24 165.26 -64.69 161.04 -64.97 154.75 C-65 154.09 -65.03 153.43 -65.07 152.76 C-65.16 150.76 -65.24 148.75 -65.31 146.75 C-65.36 145.64 -65.41 144.53 -65.46 143.38 C-65.6 139.86 -65.71 136.34 -65.81 132.81 C-65.83 132.14 -65.85 131.46 -65.87 130.76 C-66.86 96.09 -67.38 61.37 -67.44 26.69 C-67.44 25.95 -67.44 25.22 -67.45 24.46 C-67.53 -3.66 -67.53 -3.66 -64.31 -8.25 C-46.27 -14.26 -16.65 -8.03 0 0 Z " fill="#FBFCFE" transform="translate(1136.3125,680.25)"/>
<path d="M0 0 C0.73 0.56 1.47 1.12 2.22 1.7 C19.8 16.05 29.64 40.88 32.71 62.88 C34.62 83.76 31.7 106.68 18.07 123.37 C9.87 132.94 0.44 139.28 -12 142 C-13.37 142.1 -14.75 142.16 -16.12 142.18 C-17.32 142.2 -17.32 142.2 -18.55 142.22 C-19.41 142.22 -20.27 142.23 -21.15 142.24 C-22.04 142.25 -22.93 142.25 -23.85 142.26 C-25.73 142.28 -27.61 142.29 -29.49 142.3 C-31.41 142.31 -33.33 142.33 -35.25 142.36 C-38.03 142.4 -40.81 142.42 -43.59 142.43 C-44.44 142.44 -45.29 142.46 -46.17 142.48 C-52.16 142.46 -55.66 141.34 -60 137 C-60.1 135.2 -60.14 133.4 -60.14 131.6 C-60.15 130.43 -60.15 129.25 -60.16 128.05 C-60.16 126.75 -60.16 125.45 -60.16 124.11 C-60.17 122.74 -60.17 121.37 -60.18 120 C-60.19 116.26 -60.2 112.53 -60.2 108.79 C-60.2 106.46 -60.21 104.13 -60.21 101.79 C-60.23 94.5 -60.24 87.2 -60.24 79.91 C-60.24 71.48 -60.26 63.05 -60.29 54.62 C-60.31 48.11 -60.32 41.6 -60.32 35.09 C-60.32 31.2 -60.33 27.32 -60.35 23.43 C-60.36 19.76 -60.37 16.1 -60.36 12.44 C-60.36 10.46 -60.37 8.48 -60.38 6.5 C-60.38 5.31 -60.37 4.13 -60.37 2.91 C-60.37 1.88 -60.37 0.86 -60.37 -0.2 C-59.82 -4.36 -58.13 -7.01 -55 -9.75 C-38.54 -16.61 -13.47 -11.03 0 0 Z " fill="#FBFCFE" transform="translate(1130,508)"/>
<path d="M0 0 C2.87 0.87 4.02 1.76 6.06 3.91 C6.68 4.55 7.3 5.19 7.94 5.84 C8.58 6.52 9.23 7.2 9.89 7.9 C11.23 9.29 12.57 10.67 13.92 12.05 C14.56 12.7 15.19 13.36 15.85 14.04 C18.34 16.55 20.99 18.83 23.69 21.11 C27 24.04 30.04 27.23 33.14 30.37 C35.83 33.03 38.65 35.49 41.52 37.94 C43.92 40.09 46.14 42.36 48.39 44.65 C51.7 48.01 55.06 51.05 58.76 53.97 C64.32 58.4 69.25 63.34 74.23 68.4 C77.9 72.13 81.62 75.67 85.62 79.04 C88.72 81.8 91.59 84.78 94.5 87.73 C97.18 90.43 99.92 93 102.82 95.47 C106.84 98.88 110.21 102.74 113.57 106.78 C111.15 109.6 110.61 109.77 106.64 110.4 C99.33 110.18 93.42 105.43 87.59 101.41 C83.26 98.48 78.7 96.51 73.82 94.65 C73.19 94.41 72.56 94.17 71.91 93.92 C39.92 82.21 0.25 80.23 -33.24 84.4 C-33.95 84.49 -34.66 84.58 -35.4 84.67 C-59.22 87.64 -83.43 92.48 -103.63 106.08 C-108.77 109.2 -113.42 110.36 -119.43 109.78 C-120.09 108.79 -120.75 107.8 -121.43 106.78 C-120.77 106.78 -120.11 106.78 -119.43 106.78 C-119.16 106.19 -118.89 105.6 -118.62 104.99 C-117.39 102.72 -116.14 101.26 -114.3 99.47 C-113.68 98.86 -113.06 98.26 -112.42 97.63 C-110.44 95.8 -108.42 94.03 -106.36 92.28 C-103.85 90.13 -101.68 87.98 -99.61 85.4 C-96.3 81.37 -92.29 78.35 -88.23 75.11 C-84.77 72.23 -81.66 69.1 -78.52 65.88 C-76.05 63.4 -73.44 61.14 -70.79 58.86 C-67.61 56.06 -64.52 53.17 -61.43 50.28 C-53.91 43.28 -46.2 36.58 -38.35 29.97 C-34.94 27.09 -31.6 24.16 -28.3 21.15 C-24.04 17.29 -19.65 13.61 -15.17 10 C-13.31 8.5 -11.49 6.96 -9.68 5.4 C-8.81 4.66 -7.95 3.92 -7.05 3.15 C-6.28 2.48 -5.51 1.81 -4.71 1.12 C-2.43 -0.22 -2.43 -0.22 0 0 Z " fill="#22306C" transform="translate(687.425048828125,265.220703125)"/>
<path d="M0 0 C3.6 2.4 3.7 3.46 4.88 7.5 C9.55 22.18 17.42 33.22 31 41 C46.42 48.59 64.06 51.09 80.69 45.88 C86.77 43.8 92 41.04 97 37 C97.91 36.33 97.91 36.33 98.85 35.64 C108.95 27.75 115.22 14.99 119 3 C119.66 3 120.32 3 121 3 C124.42 8.83 126.67 14.67 128.31 21.19 C128.48 21.85 128.65 22.52 128.83 23.2 C130.56 30.44 130.16 36.66 128.31 43.81 C128.04 44.86 128.04 44.86 127.76 45.94 C123.26 62.6 112.93 73.94 98.22 82.49 C81.19 91.96 62.52 94.76 43.57 89.7 C38.45 88.23 33.71 86.47 29 84 C28.13 83.57 27.26 83.14 26.37 82.7 C10.35 74.44 -1.45 63.26 -7 46 C-10.82 32.86 -8.98 16.76 -2.84 4.73 C-1.96 3.12 -0.99 1.55 0 0 Z " fill="#22306C" transform="translate(566,830)"/>
</svg>
